Coordinates
version=1
nRows=26
nColumns=27
inDegrees=yes

Units are S.I. units (second, meters, Newtons, ...)
If the header above contains a line with 'inDegrees', this indicates whether rotational values are in degrees (yes) or radians (no).

endheader
time	pelvis_rotation	pelvis_tilt	pelvis_list	pelvis_tx	pelvis_ty	pelvis_tz	hip_flexion_r	hip_adduction_r	hip_rotation_r	knee_angle_r	knee_rotation_r	knee_adduction_r	knee_angle_r_beta	ankle_angle_r	subtalar_angle_r	mtp_angle_r	hip_flexion_l	hip_adduction_l	hip_rotation_l	knee_angle_l	knee_rotation_l	knee_adduction_l	knee_angle_l_beta	ankle_angle_l	subtalar_angle_l	mtp_angle_l
      2.29500000	      2.22602495	    -23.32174364	      4.09336024	      0.03553942	      0.83422588	     -1.18953356	     38.76931154	    -29.84071259	    -31.17276705	     22.85857792	      0.00000000	      4.24209751	      0.39895745	     -4.85475472	      0.00000000	      0.00000000	     36.45480123	    -17.14832054	    -13.45035883	     13.33263888	      0.00000000	      1.63812892	      0.23269845	     -9.74369419	      0.00000000	      0.00000000
      2.30000000	      2.68782116	    -23.09815556	      4.22525150	      0.03580074	      0.83428498	     -1.19017205	     38.41544229	    -30.31656235	    -32.29405230	     23.10696264	      0.00000000	      5.16157345	      0.40329258	     -4.93744687	      0.00000000	      0.00000000	     36.38284779	    -16.87196242	    -13.10355304	     13.29811727	      0.00000000	      1.57384995	      0.23209593	     -9.78978995	      0.00000000	      0.00000000
      2.30500000	      2.53381616	    -23.95583567	      4.74226142	      0.03348567	      0.83336217	     -1.19078950	     40.40703194	    -30.94124107	    -30.97721907	     24.16592258	      0.00000000	      4.99434233	      0.42177492	     -4.67446415	      0.00000000	      0.00000000	     37.61185905	    -16.60827631	    -13.62149025	     14.03277297	      0.00000000	      1.33933837	      0.24491809	     -9.54741862	      0.00000000	      0.00000000
      2.31000000	      2.14622993	    -25.77738776	      5.19444102	      0.02902025	      0.83168503	     -1.19119883	     43.99327634	    -31.30161927	    -28.36743838	     25.61349847	      0.00000000	      3.97178641	      0.44703988	     -4.38122735	      0.00000000	      0.00000000	     40.33575927	    -16.69423698	    -14.42569752	     15.67344608	      0.00000000	      0.83148003	      0.27355324	     -8.97399810	      0.00000000	      0.00000000
      2.31500000	      2.61921390	    -25.48704812	      5.09327143	      0.02937651	      0.83174132	     -1.19154022	     43.37125613	    -31.56517078	    -29.62852347	     25.70708326	      0.00000000	      4.82272437	      0.44867324	     -4.50423774	      0.00000000	      0.00000000	     40.31500012	    -16.62796344	    -14.00000099	     15.74843699	      0.00000000	      0.64296289	      0.27486208	     -8.95474633	      0.00000000	      0.00000000
      2.32000000	      2.41437379	    -26.35614935	      5.61535262	      0.02688434	      0.83061287	     -1.19213059	     45.49597955	    -32.08194924	    -28.10925022	     26.75782184	      0.00000000	      4.64226120	      0.46701209	     -4.32451980	      0.00000000	      0.00000000	     41.57607056	    -16.45021623	    -14.67729298	     16.56212579	      0.00000000	      0.32142361	      0.28906363	     -8.68427232	      0.00000000	      0.00000000
      2.32500000	      2.18423205	    -28.47339015	      6.01217854	      0.02177648	      0.82864035	     -1.19243430	     49.45107883	    -32.27891156	    -25.42027738	     28.24942464	      0.00000000	      3.51561478	      0.49304547	     -4.08784756	      0.00000000	      0.00000000	     44.72725527	    -16.61298317	    -14.89593734	     18.24662410	      0.00000000	      0.23469622	      0.31846367	     -8.17013772	      0.00000000	      0.00000000
      2.33000000	      2.44462673	    -29.07563101	      5.64871719	      0.02013241	      0.82794538	     -1.19224991	     50.12597163	    -32.12560620	    -25.57799817	     28.60941855	      0.00000000	      3.46280766	      0.49932855	     -4.09044547	      0.00000000	      0.00000000	     46.12695266	    -16.99952910	    -14.35433737	     19.10365643	      0.00000000	     -0.01024838	      0.33342170	     -7.93027942	      0.00000000	      0.00000000
      2.33500000	      2.59331645	    -28.47919452	      5.63694645	      0.02092358	      0.82776186	     -1.19250263	     49.42037810	    -32.42182741	    -26.43807853	     28.78554833	      0.00000000	      4.32867937	      0.50240260	     -4.13057260	      0.00000000	      0.00000000	     45.68139885	    -17.03349335	    -14.91050600	     19.31745891	      0.00000000	     -0.85379292	      0.33715326	     -7.81621702	      0.00000000	      0.00000000
      2.34000000	      2.70042271	    -29.02148367	      5.64140097	      0.01923129	      0.82676902	     -1.19261912	     50.47279286	    -32.56739023	    -26.06912866	     29.41928974	      0.00000000	      4.34065324	      0.51346347	     -4.07297513	      0.00000000	      0.00000000	     46.84886437	    -17.19652031	    -14.92712992	     20.15391309	      0.00000000	     -1.21974418	      0.35175214	     -7.55484614	      0.00000000	      0.00000000
      2.34500000	      2.38209257	    -29.54572832	      6.07033897	      0.01729842	      0.82551413	     -1.19293274	     52.20910616	    -32.87232894	    -24.61039353	     30.34994502	      0.00000000	      4.25918048	      0.52970647	     -3.96166480	      0.00000000	      0.00000000	     47.64086058	    -17.20840220	    -15.84960917	     20.88629759	      0.00000000	     -1.72031511	      0.36453466	     -7.29683906	      0.00000000	      0.00000000
      2.35000000	      2.51680424	    -29.81290838	      5.86379638	      0.01617844	      0.82459426	     -1.19279739	     52.67817188	    -32.87163943	    -24.66967791	     30.80524292	      0.00000000	      4.36639975	      0.53765292	     -3.85514598	      0.00000000	      0.00000000	     48.55392281	    -17.52600349	    -15.77409736	     21.69260625	      0.00000000	     -2.20653686	      0.37860740	     -7.05853637	      0.00000000	      0.00000000
      2.35500000	      2.91148975	    -31.22701859	      6.45440189	      0.01257329	      0.82258985	     -1.19351025	     55.43508014	    -33.56536697	    -23.49785851	     32.13690145	      0.00000000	      4.27764358	      0.56089474	     -3.66374069	      0.00000000	      0.00000000	     50.86862230	    -17.22737659	    -15.33789461	     22.86390800	      0.00000000	     -2.00093950	      0.39905047	     -6.74643622	      0.00000000	      0.00000000
      2.36000000	      2.93519697	    -33.29976376	      5.97028974	      0.00772640	      0.82034191	     -1.19280520	     58.43930325	    -33.02306861	    -22.14875101	     33.12335993	      0.00000000	      3.18105470	      0.57811169	     -3.72394193	      0.00000000	      0.00000000	     54.45743011	    -18.04395549	    -14.53719482	     24.72083403	      0.00000000	     -2.10590170	      0.43145995	     -6.32837806	      0.00000000	      0.00000000
      2.36500000	      3.11749795	    -30.47027372	      5.39019411	      0.01303211	      0.82139904	     -1.19251147	     53.94932756	    -33.17858763	    -25.16729545	     32.30610436	      0.00000000	      4.91589215	      0.56384789	     -3.59791006	      0.00000000	      0.00000000	     51.18731490	    -18.27134978	    -15.35737400	     24.08730013	      0.00000000	     -3.58992019	      0.42040270	     -6.29399229	      0.00000000	      0.00000000
      2.37000000	      3.02032277	    -30.95145862	      6.11318465	      0.01105527	      0.81968989	     -1.19310915	     55.82512599	    -33.80702837	    -23.64981092	     33.43107556	      0.00000000	      4.95651809	      0.58348234	     -3.36671259	      0.00000000	      0.00000000	     51.91818989	    -18.00736805	    -16.08057976	     24.77139977	      0.00000000	     -3.85231339	      0.43234249	     -6.05594446	      0.00000000	      0.00000000
      2.37500000	      3.05989208	    -30.71467460	      5.90424987	      0.01083930	      0.81877342	     -1.19288068	     55.65620561	    -33.85836157	    -23.98745375	     33.77197175	      0.00000000	      5.25511730	      0.58943210	     -3.34099666	      0.00000000	      0.00000000	     52.11340280	    -18.32458476	    -16.26772957	     25.36810288	      0.00000000	     -4.49531071	      0.44275692	     -5.82571339	      0.00000000	      0.00000000
      2.38000000	      2.96935090	    -30.60054177	      5.70219380	      0.01031340	      0.81769878	     -1.19251078	     55.77629726	    -33.80370797	    -23.96050664	     34.18750293	      0.00000000	      5.47471462	      0.59668449	     -3.17773454	      0.00000000	      0.00000000	     52.42030746	    -18.72806648	    -16.57697995	     26.02447855	      0.00000000	     -5.12109751	      0.45421284	     -5.60996041	      0.00000000	      0.00000000
      2.38500000	      3.09454830	    -30.61892194	      5.61392894	      0.00956031	      0.81647886	     -1.19237399	     56.04376987	    -33.95732889	    -24.04917855	     34.69319966	      0.00000000	      5.68762485	      0.60551056	     -3.02465515	      0.00000000	      0.00000000	     52.95707527	    -18.94408638	    -16.59145619	     26.70054052	      0.00000000	     -5.59159334	      0.46601234	     -5.38080503	      0.00000000	      0.00000000
      2.39000000	      3.09232455	    -31.89289081	      5.63953005	      0.00622226	      0.81422127	     -1.19215540	     58.38090957	    -33.96964549	    -22.90172782	     35.73987299	      0.00000000	      5.41226547	      0.62377846	     -2.71858998	      0.00000000	      0.00000000	     55.19387005	    -19.33607708	    -16.53256869	     28.02215023	      0.00000000	     -5.89444015	      0.48907878	     -5.08731538	      0.00000000	      0.00000000
      2.39500000	      3.30682114	    -30.59087669	      5.45135831	      0.00809606	      0.81405232	     -1.19206822	     56.52643408	    -34.26207985	    -24.21982848	     35.67589759	      0.00000000	      6.16441085	      0.62266188	     -2.79711022	      0.00000000	      0.00000000	     53.89864376	    -19.36509907	    -16.64361557	     27.96970659	      0.00000000	     -6.45023292	      0.48816347	     -4.95453871	      0.00000000	      0.00000000
      2.40000000	      3.55440249	    -30.80765100	      5.53842690	      0.00691573	      0.81262983	     -1.19211813	     57.15262233	    -34.61229834	    -24.21074829	     36.32359821	      0.00000000	      6.43609666	      0.63396639	     -2.56267309	      0.00000000	      0.00000000	     54.66679691	    -19.39133374	    -16.49965871	     28.63852130	      0.00000000	     -6.69985450	      0.49983649	     -4.75226604	      0.00000000	      0.00000000
      2.40500000	      3.56071213	    -31.70682695	      5.60388605	      0.00404867	      0.81088429	     -1.19192817	     58.93055404	    -34.57313941	    -22.98123323	     37.03988238	      0.00000000	      5.68775630	      0.64646790	     -2.63864971	      0.00000000	      0.00000000	     56.21260932	    -19.49293313	    -15.91161090	     29.42281502	      0.00000000	     -6.25393252	      0.51352500	     -4.63644383	      0.00000000	      0.00000000
      2.41000000	      3.77881525	    -30.64712917	      5.28132854	      0.00574403	      0.81051108	     -1.19169260	     57.24137898	    -34.82191305	    -24.59225312	     37.04607187	      0.00000000	      6.81538056	      0.64657593	     -2.45248852	      0.00000000	      0.00000000	     55.36228659	    -19.80012207	    -16.40957816	     29.65963499	      0.00000000	     -7.42662657	      0.51765829	     -4.42959071	      0.00000000	      0.00000000
      2.41500000	      3.85965579	    -30.86076666	      5.64162025	      0.00442838	      0.80910889	     -1.19189207	     58.20079234	    -35.23889053	    -23.98595737	     37.72297259	      0.00000000	      6.99196149	      0.65839008	     -2.29879200	      0.00000000	      0.00000000	     55.86138505	    -19.70066083	    -16.69696190	     30.15304283	      0.00000000	     -7.62498683	      0.52626988	     -4.28815272	      0.00000000	      0.00000000
      2.42000000	      3.89830188	    -30.71432420	      5.37618986	      0.00404864	      0.80828177	     -1.19147707	     58.02259493	    -35.19376247	    -24.31054017	     37.95021761	      0.00000000	      7.12794601	      0.66235625	     -2.25326630	      0.00000000	      0.00000000	     56.08115474	    -20.00852559	    -16.63677324	     30.55508649	      0.00000000	     -7.97770455	      0.53328686	     -4.16655326	      0.00000000	      0.00000000
